<?xml version="1.0" encoding="utf-8"?>
<!-- Generator: Adobe Illustrator 23.0.5, SVG Export Plug-In . SVG Version: 6.00 Build 0)  -->
<svg version="1.1" id="Capa_1" xmlns="http://www.w3.org/2000/svg" xmlns:xlink="http://www.w3.org/1999/xlink" x="0px" y="0px"
	 viewBox="0 0 389.7 389.7" style="enable-background:new 0 0 389.7 389.7;" xml:space="preserve">
<style type="text/css">
	.st0{fill:#FFFFFF;stroke:#FFE9E9;stroke-miterlimit:10;}
</style>
<g>
	<path class="st0" d="M193.6,88.6c34.2,0,38.2,0.1,51.7,0.7c12.5,0.6,19.3,2.7,23.8,4.4c6,2.3,10.2,5.1,14.7,9.6
		c4.5,4.5,7.3,8.7,9.6,14.7c1.8,4.5,3.8,11.3,4.4,23.8c0.6,13.5,0.7,17.5,0.7,51.7s-0.1,38.2-0.7,51.7c-0.6,12.5-2.7,19.3-4.4,23.8
		c-2.3,6-5.1,10.2-9.6,14.7c-4.5,4.5-8.7,7.3-14.7,9.6c-4.5,1.8-11.3,3.8-23.8,4.4c-13.5,0.6-17.5,0.7-51.7,0.7s-38.2-0.1-51.7-0.7
		c-12.5-0.6-19.3-2.7-23.8-4.4c-6-2.3-10.2-5.1-14.7-9.6c-4.5-4.5-7.3-8.7-9.6-14.7c-1.8-4.5-3.8-11.3-4.4-23.8
		c-0.6-13.5-0.7-17.5-0.7-51.7s0.1-38.2,0.7-51.7c0.6-12.5,2.7-19.3,4.4-23.8c2.3-6,5.1-10.2,9.6-14.7c4.5-4.5,8.7-7.3,14.7-9.6
		c4.5-1.8,11.3-3.8,23.8-4.4C155.4,88.8,159.4,88.6,193.6,88.6 M193.6,65.6c-34.8,0-39.1,0.1-52.8,0.8c-13.6,0.6-22.9,2.8-31.1,5.9
		c-8.4,3.3-15.6,7.6-22.7,14.8c-7.1,7.1-11.5,14.3-14.8,22.7c-3.2,8.1-5.3,17.4-5.9,31.1c-0.6,13.7-0.8,18-0.8,52.8
		s0.1,39.1,0.8,52.8c0.6,13.6,2.8,22.9,5.9,31.1c3.3,8.4,7.6,15.6,14.8,22.7c7.1,7.1,14.3,11.5,22.7,14.8c8.1,3.2,17.4,5.3,31.1,5.9
		c13.7,0.6,18,0.8,52.8,0.8s39.1-0.1,52.8-0.8c13.6-0.6,22.9-2.8,31.1-5.9c8.4-3.3,15.6-7.6,22.7-14.8c7.1-7.1,11.5-14.3,14.8-22.7
		c3.2-8.1,5.3-17.4,5.9-31.1c0.6-13.7,0.8-18,0.8-52.8s-0.1-39.1-0.8-52.8c-0.6-13.6-2.8-22.9-5.9-31.1c-3.3-8.4-7.6-15.6-14.8-22.7
		c-7.1-7.1-14.3-11.5-22.7-14.8c-8.1-3.2-17.4-5.3-31.1-5.9C232.7,65.7,228.3,65.6,193.6,65.6z M193.6,127.9
		c-36.3,0-65.7,29.4-65.7,65.7s29.4,65.7,65.7,65.7s65.7-29.4,65.7-65.7S229.9,127.9,193.6,127.9z M193.6,236.2
		c-23.6,0-42.7-19.1-42.7-42.7s19.1-42.7,42.7-42.7s42.7,19.1,42.7,42.7S217.1,236.2,193.6,236.2z M277.3,125.3
		c0,8.5-6.9,15.4-15.4,15.4c-8.5,0-15.4-6.9-15.4-15.4s6.9-15.4,15.4-15.4C270.4,109.9,277.3,116.8,277.3,125.3z"/>
</g>
</svg>
